<?xml version="1.0" standalone="no"?>
<!DOCTYPE svg PUBLIC "-//W3C//DTD SVG 20010904//EN"
 "http://www.w3.org/TR/2001/REC-SVG-20010904/DTD/svg10.dtd">
<svg version="1.0" xmlns="http://www.w3.org/2000/svg"
 width="225.000000pt" height="225.000000pt" viewBox="0 0 225.000000 225.000000"
 preserveAspectRatio="xMidYMid meet">

<g transform="translate(0.000000,225.000000) scale(0.100000,-0.100000)"
fill="#000000" stroke="none">
<path d="M1659 2225 c-25 -13 -44 -47 -51 -89 -2 -15 -68 -44 -317 -137 -261
-99 -323 -119 -368 -119 l-55 0 -98 91 c-94 87 -98 93 -85 113 31 44 15 105
-35 131 -80 41 -170 -2 -170 -83 0 -66 75 -118 139 -97 17 5 39 -9 108 -72
l86 -78 -269 -5 c-259 -5 -271 -6 -314 -29 -59 -31 -78 -48 -101 -93 -19 -37
-19 -66 -17 -772 l3 -734 31 -39 c17 -21 53 -49 80 -63 44 -22 60 -25 151 -23
97 1 103 0 103 -19 0 -30 61 -85 109 -98 92 -25 201 35 201 110 0 17 3 30 8
30 4 0 171 11 372 25 201 14 373 25 383 25 11 0 17 -8 17 -23 0 -88 164 -141
272 -88 49 23 69 50 77 101 l6 35 99 6 c54 4 103 12 109 18 17 17 23 1419 7
1474 -15 50 -65 106 -120 131 -43 20 -64 21 -490 24 l-445 3 265 100 265 100
35 -20 c63 -35 130 -32 171 8 23 23 29 38 29 71 0 33 -6 48 -29 71 -25 25 -37
29 -83 29 -29 -1 -65 -7 -79 -15z m316 -413 c122 -56 134 -89 135 -349 l0
-203 -660 0 -660 0 0 35 c0 38 5 42 34 20 31 -24 117 -19 156 8 58 39 75 71
75 142 0 69 -15 99 -68 139 -38 28 -122 27 -171 -3 l-36 -23 0 21 c0 18 -6 21
-50 21 l-50 0 0 -180 0 -180 -260 0 -260 0 0 224 0 224 26 31 c38 46 76 69
135 85 45 13 178 15 829 13 l775 -2 50 -23z m-1058 -277 c43 -30 38 -131 -8
-155 -58 -32 -119 10 -119 80 0 75 69 115 127 75z m-352 -471 c98 -34 159
-133 172 -278 14 -175 -46 -319 -159 -382 -50 -27 -61 -29 -185 -32 l-133 -4
0 356 0 356 128 0 c93 0 142 -5 177 -16z m535 11 c0 -4 176 -655 186 -687 5
-16 -3 -18 -64 -18 l-70 0 -19 77 -19 78 -94 0 -94 0 -19 -77 -19 -78 -68 0
-69 0 20 73 c11 39 54 194 95 342 41 149 77 276 79 283 3 8 28 12 80 12 41 0
75 -2 75 -5z m580 -65 l0 -70 -75 0 -75 0 0 -285 0 -285 -65 0 -65 0 0 285 0
284 -77 3 -78 3 -3 68 -3 67 221 0 220 0 0 -70z m380 0 l0 -70 -95 0 -95 0 0
-70 0 -69 88 -3 87 -3 3 -67 3 -68 -91 0 -90 0 0 -80 0 -80 105 0 105 0 0 -65
0 -65 -165 0 -165 0 0 355 0 355 155 0 155 0 0 -70z"/>
<path d="M1150 1740 c-24 -24 -24 -30 -6 -55 8 -11 25 -18 44 -18 57 0 81 43
44 76 -25 23 -58 21 -82 -3z"/>
<path d="M280 1520 l0 -220 160 0 160 0 0 40 0 40 -105 0 -105 0 0 55 0 55 95
0 95 0 0 40 0 40 -95 0 -95 0 0 45 0 45 100 0 100 0 0 40 0 40 -155 0 -155 0
0 -220z"/>
<path d="M1418 1618 c-44 -12 -88 -59 -88 -95 0 -34 47 -75 106 -94 89 -27 62
-82 -32 -65 -19 4 -41 9 -49 12 -8 3 -17 -7 -23 -26 -10 -28 -9 -32 14 -40 14
-6 55 -10 92 -10 78 0 131 22 150 62 26 55 -8 104 -93 135 -37 14 -50 24 -50
38 0 18 7 20 59 20 53 0 60 3 68 24 10 29 9 31 -39 42 -46 10 -67 10 -115 -3z"/>
<path d="M1777 1616 c-88 -24 -137 -99 -122 -187 8 -49 36 -84 88 -110 32 -17
54 -20 113 -17 81 4 112 20 152 79 20 28 23 44 20 92 -3 36 -11 67 -24 84 -43
58 -141 83 -227 59z m98 -62 c23 -9 45 -57 45 -99 0 -27 -8 -44 -29 -66 -46
-45 -91 -34 -117 28 -35 82 27 165 101 137z"/>
<path d="M1140 1460 l0 -160 55 0 55 0 0 160 0 160 -55 0 -55 0 0 -160z"/>
<path d="M380 720 l0 -220 33 0 c124 0 189 80 189 232 0 141 -53 208 -164 208
l-58 0 0 -220z"/>
<path d="M1006 815 c-18 -32 -23 -35 -65 -35 l-45 0 32 -33 c30 -31 32 -38 26
-76 l-7 -42 37 18 c34 16 38 16 65 0 40 -23 41 -22 41 23 0 33 6 46 32 69 l32
28 -45 7 c-40 6 -47 11 -58 41 -7 19 -15 35 -19 35 -4 0 -16 -16 -26 -35z"/>
</g>
</svg>
